<svg height="512pt" viewBox="0 -38 512 511" width="512pt" xmlns="http://www.w3.org/2000/svg" xmlns:xlink="http://www.w3.org/1999/xlink"><linearGradient id="a"><stop offset="0" stop-color="#445ea0"/><stop offset=".3216" stop-color="#415a9b"/><stop offset=".6926" stop-color="#364d8d"/><stop offset="1" stop-color="#2a3d7c"/></linearGradient><linearGradient id="b" gradientUnits="userSpaceOnUse" x1="256.00011" x2="256.00011" xlink:href="#a" y1="404.8276943802" y2="432.8170397402"/><linearGradient id="c" gradientUnits="userSpaceOnUse" x1="383.9919328396" x2="219.6364488848" y1="423.5225290798" y2="292.6467395108"><stop offset="0" stop-color="#2a3d7c" stop-opacity="0"/><stop offset=".3949" stop-color="#273a77" stop-opacity=".396078"/><stop offset=".8504" stop-color="#1e3069" stop-opacity=".85098"/><stop offset="1" stop-color="#1a2b63"/></linearGradient><linearGradient id="d" gradientUnits="userSpaceOnUse" x1="112.8421378986" x2="557.3315147724" xlink:href="#a" y1="24.2957787136" y2="468.7850551952"/><linearGradient id="e" gradientUnits="userSpaceOnUse" x1="128.2603719746" x2="524.8778286706" y1="39.7140127896" y2="436.3314694856"><stop offset="0" stop-color="#fffcf8"/><stop offset=".1875" stop-color="#faf8f6"/><stop offset=".4041" stop-color="#eceef2"/><stop offset=".6353" stop-color="#d5dcea"/><stop offset=".875" stop-color="#b5c4df"/><stop offset="1" stop-color="#a1b5d8"/></linearGradient><linearGradient id="f"><stop offset="0" stop-color="#a1b5d8" stop-opacity="0"/><stop offset=".2632" stop-color="#8ea0ba" stop-opacity=".262745"/><stop offset=".5306" stop-color="#808fa3" stop-opacity=".529412"/><stop offset=".7822" stop-color="#778595" stop-opacity=".780392"/><stop offset="1" stop-color="#748290"/></linearGradient><linearGradient id="g" gradientUnits="userSpaceOnUse" x1="264.0042797138" x2="39.5206946286" xlink:href="#f" y1="255.171937526" y2="30.6883524408"/><radialGradient id="h" cx="153.2449787886" cy="88.7296009098" gradientUnits="userSpaceOnUse" r="214.852860947"><stop offset="0" stop-color="#ffd00d"/><stop offset=".5" stop-color="#ffce0d"/><stop offset=".6801" stop-color="#ffc70e"/><stop offset=".8085" stop-color="#ffbc10"/><stop offset=".9115" stop-color="#ffab13"/><stop offset="1" stop-color="#ff9517"/></radialGradient><linearGradient id="i" gradientUnits="userSpaceOnUse" x1="207.4711228732" x2="194.0318198436" y1="196.9425540742" y2="109.9066327544"><stop offset="0" stop-color="#ff9517" stop-opacity="0"/><stop offset=".3074" stop-color="#ee8421" stop-opacity=".305882"/><stop offset=".6784" stop-color="#e07728" stop-opacity=".678431"/><stop offset="1" stop-color="#db722b"/></linearGradient><linearGradient id="j"><stop offset="0" stop-color="#00e7b2"/><stop offset=".2459" stop-color="#05e5b1"/><stop offset=".5301" stop-color="#13ddac"/><stop offset=".8322" stop-color="#2ad1a5"/><stop offset="1" stop-color="#3ac9a0"/></linearGradient><linearGradient id="k" gradientUnits="userSpaceOnUse" x1="180.1853260508" x2="304.8311772566" xlink:href="#j" y1="79.9822277394" y2="265.3533128812"/><linearGradient id="l" gradientUnits="userSpaceOnUse" x1="244.410332471" x2="114.650402205" y1="110.4901122208" y2="95.7881764918"><stop offset="0" stop-color="#3ac9a0" stop-opacity="0"/><stop offset=".0351" stop-color="#38c69d" stop-opacity=".035294"/><stop offset=".4167" stop-color="#23aa82" stop-opacity=".415686"/><stop offset=".7511" stop-color="#169971" stop-opacity=".752941"/><stop offset="1" stop-color="#11936b"/></linearGradient><radialGradient id="m" cx="119.9687793922" cy="38.8198194642" gradientUnits="userSpaceOnUse" r="146.0528815806"><stop offset="0" stop-color="#ff4974"/><stop offset=".3262" stop-color="#fe4672"/><stop offset=".5324" stop-color="#fb3e6c"/><stop offset=".7054" stop-color="#f52f60"/><stop offset=".8591" stop-color="#ee1a51"/><stop offset="1" stop-color="#e4003d"/></radialGradient><linearGradient id="n" gradientUnits="userSpaceOnUse" x1="410.8060871064" x2="308.6792102826" xlink:href="#f" y1="279.5997691988" y2="89.7565127236"/><linearGradient id="o" gradientUnits="userSpaceOnUse" x1="365.4046181862" x2="383.482643209" xlink:href="#j" y1="215.4682279168" y2="281.7545873796"/><path d="m283.386719 371.539062v-83.308593h-54.773438v83.308593c0 7.644532-5.53125 14.167969-13.074219 15.414063l-73.539062 12.152344c-10.613281 1.753906-18.398438 10.933593-18.398438 21.691406v6.761719c0 4.324218 3.507813 7.828125 7.828126 7.828125h249.136718c4.324219 0 7.828125-3.503907 7.828125-7.828125v-6.761719c0-10.757813-7.785156-19.9375-18.398437-21.691406l-73.535156-12.152344c-7.542969-1.25-13.074219-7.769531-13.074219-15.414063zm0 0" fill="url(#b)"/><path d="m388.394531 427.558594v-6.761719c0-10.757813-7.785156-19.9375-18.398437-21.691406l-73.535156-12.152344c-7.542969-1.246094-13.074219-7.769531-13.074219-15.414063v-83.308593h-54.773438v46.175781l100.980469 100.980469h50.972656c4.324219 0 7.828125-3.503907 7.828125-7.828125zm0 0" fill="url(#c)"/><path d="m0 321.828125v-308.75c0-6.945313 5.632812-12.578125 12.578125-12.578125h486.84375c6.945313 0 12.578125 5.632812 12.578125 12.578125v308.75c0 6.945313-5.632812 12.578125-12.578125 12.578125h-486.84375c-6.945313 0-12.578125-5.632812-12.578125-12.578125zm0 0" fill="url(#d)"/><path d="m22.917969 301.460938v-268.015626c0-4.980468 4.035156-9.015624 9.015625-9.015624h448.132812c4.980469 0 9.015625 4.035156 9.015625 9.015624v268.015626c0 4.980468-4.035156 9.019531-9.015625 9.019531h-448.132812c-4.980469 0-9.015625-4.039063-9.015625-9.019531zm0 0" fill="url(#e)"/><path d="m489.082031 299.238281v-.84375l-219.347656-219.351562c-23.449219-24.777344-56.644531-40.238281-93.449219-40.238281-71.046875 0-128.644531 57.597656-128.644531 128.648437 0 36.804687 15.457031 69.996094 40.234375 93.445313l49.578125 49.582031h340.386719c6.210937 0 11.242187-5.035157 11.242187-11.242188zm0 0" fill="url(#g)"/><path d="m304.933594 167.453125c0 71.050781-57.597656 128.648437-128.648438 128.648437-71.050781 0-128.644531-57.597656-128.644531-128.648437s57.59375-128.648437 128.644531-128.648437c71.050782 0 128.648438 57.597656 128.648438 128.648437zm0 0" fill="url(#h)"/><path d="m85.3125 76.492188 181.9375 181.929687c23.28125-23.28125 37.683594-55.441406 37.683594-90.96875 0-32.511719-12.066406-62.199219-31.957032-84.847656-.117187-.113281-.230468-.230469-.347656-.34375-1.214844-1.261719-2.453125-2.503907-3.71875-3.71875-23.472656-24.433594-56.402344-39.738281-92.625-39.738281-.054687 0-.105468.003906-.160156.003906-1.023438 0-2.046875.011718-3.0625.039062-29.664062.742188-58.113281 11.730469-80.535156 30.964844-.082032.070312-.160156.132812-.238282.199219-.660156.570312-1.3125 1.152343-1.964843 1.738281-.140625.125-.285157.25-.425781.375-.617188.558594-1.222657 1.128906-1.828126 1.699219-.164062.15625-.332031.304687-.496093.460937-.757813.722656-1.511719 1.457032-2.253907 2.199219-.003906.003906-.003906.003906-.007812.007813zm0 0" fill="url(#i)"/><path d="m176.285156 167.453125-90.972656-90.960937c24.117188-24.121094 56.863281-37.6875 90.972656-37.6875 70.574219 0 128.648438 56.507812 128.648438 128.648437zm0 0" fill="url(#k)"/><path d="m305.199219 166.996094c-.042969-10.300782-1.328125-20.324219-3.703125-29.941406l-95.507813-94.714844c-4.25-1.011719-8.582031-1.8125-12.976562-2.382813-.355469-.046875-.710938-.09375-1.066407-.136719-.671874-.082031-1.347656-.15625-2.019531-.226562-.550781-.058594-1.097656-.113281-1.644531-.164062-.570312-.050782-1.140625-.101563-1.710938-.144532-.664062-.054687-1.328124-.097656-1.992187-.136718-.492187-.03125-.984375-.066407-1.480469-.089844-.78125-.042969-1.566406-.070313-2.347656-.09375-.390625-.011719-.785156-.03125-1.175781-.039063-1.1875-.03125-2.371094-.042969-3.558594-.039062-28.777344.121093-56.546875 9.894531-78.945313 27.492187-4.148437 3.257813-8.113281 6.785156-11.867187 10.570313l91.351563 90.582031zm0 0" fill="url(#l)"/><path d="m176.285156 167.453125-90.972656-90.960937c24.117188-24.121094 56.863281-37.6875 90.972656-37.6875 10.070313 0 20.105469 1.183593 29.902344 3.527343zm0 0" fill="url(#m)"/><g fill="#ff4974"><path d="m321.375 77.039062h144.804688v17.488282h-144.804688zm0 0"/><path d="m321.375 118.765625h144.804688v17.488281h-144.804688zm0 0"/><path d="m321.375 160.492188h98.863281v17.488281h-98.863281zm0 0"/></g><path d="m489.082031 301.460938v-15.683594l-70.003906-70.003906c-1.238281-1.867188-3.359375-3.097657-5.769531-3.097657h-85.007813c-3.828125 0-6.929687 3.101563-6.929687 6.925781v31.339844c0 2.410156 1.230468 4.527344 3.097656 5.769532l53.769531 53.765624h101.828125c4.980469.003907 9.015625-4.035156 9.015625-9.015624zm0 0" fill="url(#n)"/><path d="m413.308594 257.867188h-85.007813c-3.828125 0-6.925781-3.101563-6.925781-6.925782v-31.339844c0-3.824218 3.097656-6.925781 6.925781-6.925781h85.007813c3.828125 0 6.929687 3.101563 6.929687 6.925781v31.339844c0 3.824219-3.101562 6.925782-6.929687 6.925782zm0 0" fill="url(#o)"/></svg>