<svg id="Capa_1" enable-background="new 0 0 510.002 510.002" height="512" viewBox="0 0 510.002 510.002" width="512" xmlns="http://www.w3.org/2000/svg" xmlns:xlink="http://www.w3.org/1999/xlink"><linearGradient id="SVGID_1_" gradientUnits="userSpaceOnUse" x1="208.001" x2="325.274" y1="289.181" y2="289.181"><stop offset="0" stop-color="#ffdfcf"/><stop offset="1" stop-color="#fecec8"/></linearGradient><linearGradient id="SVGID_2_" gradientUnits="userSpaceOnUse" x1="277.334" x2="310.667" y1="289.182" y2="289.182"><stop offset="0" stop-color="#fecec8"/><stop offset="1" stop-color="#f1b0a2"/></linearGradient><linearGradient id="lg1"><stop offset="0" stop-color="#9cf8d2"/><stop offset=".7542" stop-color="#00c285"/><stop offset="1" stop-color="#006e66"/></linearGradient><linearGradient id="SVGID_3_" gradientUnits="userSpaceOnUse" x1="150.398" x2="485.563" xlink:href="#lg1" y1="289.312" y2="289.312"/><linearGradient id="SVGID_4_" gradientUnits="userSpaceOnUse" x1="232.001" x2="316.014" xlink:href="#lg1" y1="340.753" y2="340.753"/><linearGradient id="lg2"><stop offset="0" stop-color="#918291"/><stop offset=".7487" stop-color="#7a6d79"/><stop offset="1" stop-color="#554e56"/></linearGradient><linearGradient id="SVGID_5_" gradientUnits="userSpaceOnUse" x1="80.001" x2="204.396" xlink:href="#lg2" y1="431.52" y2="431.52"/><linearGradient id="SVGID_6_" gradientUnits="userSpaceOnUse" x1="283.001" x2="472.265" xlink:href="#lg2" y1="431.52" y2="431.52"/><linearGradient id="SVGID_7_" gradientUnits="userSpaceOnUse" x1="292.001" x2="380.003" xlink:href="#lg2" y1="383.42" y2="383.42"/><linearGradient id="SVGID_8_" gradientUnits="userSpaceOnUse" x1="69.334" x2="254.029" y1="318.2" y2="318.2"><stop offset="0" stop-color="#f8f6f7"/><stop offset=".1788" stop-color="#f8f6f7"/><stop offset="1" stop-color="#ffdfcf"/></linearGradient><linearGradient id="SVGID_9_" gradientUnits="userSpaceOnUse" x1="119.32" x2="510.982" xlink:href="#lg2" y1="301.312" y2="301.312"/><linearGradient id="lg3"><stop offset="0" stop-color="#a79ba7"/><stop offset=".7487" stop-color="#7a6d79"/><stop offset="1" stop-color="#685e68"/></linearGradient><linearGradient id="SVGID_10_" gradientUnits="userSpaceOnUse" x1="291.001" x2="459.761" xlink:href="#lg3" y1="366.653" y2="366.653"/><linearGradient id="SVGID_11_" gradientUnits="userSpaceOnUse" x1="13.001" x2="241.255" xlink:href="#lg3" y1="278.814" y2="278.814"/><linearGradient id="SVGID_12_" gradientUnits="userSpaceOnUse" x1="87.001" x2="486.038" y1="463.437" y2="463.437"><stop offset="0" stop-color="#ffe177"/><stop offset="1" stop-color="#fd6930"/></linearGradient><linearGradient id="lg4"><stop offset="0" stop-color="#fff3de"/><stop offset=".593" stop-color="#ffd15b"/><stop offset="1" stop-color="#fe7d43"/></linearGradient><linearGradient id="SVGID_13_" gradientUnits="userSpaceOnUse" x1="26.943" x2="341.476" xlink:href="#lg4" y1="455.649" y2="455.649"/><linearGradient id="SVGID_14_" gradientUnits="userSpaceOnUse" x1="-71.365" x2="322.001" xlink:href="#lg4" y1="455.649" y2="455.649"/><linearGradient id="lg5"><stop offset="0" stop-color="#f6a6d2"/><stop offset=".593" stop-color="#fe646f"/><stop offset="1" stop-color="#d90d80"/></linearGradient><linearGradient id="SVGID_15_" gradientUnits="userSpaceOnUse" x1="192.918" x2="403.73" xlink:href="#lg5" y1="117.277" y2="117.277"/><linearGradient id="SVGID_16_" gradientUnits="userSpaceOnUse" x1="196.001" x2="388.035" xlink:href="#lg5" y1="117.277" y2="117.277"/><linearGradient id="SVGID_18_" gradientUnits="userSpaceOnUse" x1="108.001" x2="467.336" xlink:href="#lg4" y1="117.277" y2="117.277"/><linearGradient id="SVGID_19_" gradientUnits="userSpaceOnUse" x1="218.501" x2="349.003" xlink:href="#lg4" y1="117.277" y2="117.277"/><linearGradient id="SVGID_20_" gradientUnits="userSpaceOnUse" x1="193.167" x2="375.865" xlink:href="#lg4" y1="117.282" y2="117.282"/><linearGradient id="SVGID_21_" gradientUnits="userSpaceOnUse" x1="284.719" x2="312.74" xlink:href="#lg1" y1="16.749" y2="16.749"/><g><path d="m298.729 78.108c-12.036 0-21.793 9.757-21.793 21.792v378.561c0 12.036 9.757 21.792 21.793 21.792s21.793-9.757 21.793-21.792v-378.561c0-12.036-9.757-21.792-21.793-21.792z" fill="url(#SVGID_1_)"/><g><path d="m320.521 99.901v378.56c0 12.04-9.76 21.79-21.79 21.79-4.66 0-8.97-1.46-12.51-3.95 5.62-3.93 9.29-10.46 9.29-17.84v-246.22h-5.7c-4.59 0-8.95-.99-12.87-2.75v-129.59c0-7.38 3.67-13.91 9.28-17.84 3.54-2.49 7.85-3.95 12.51-3.95 12.03 0 21.79 9.75 21.79 21.79z" fill="url(#SVGID_2_)"/></g><path d="m455.054 323.04h-266.874l-97.693-97.693c-6.918-6.918-18.133-6.917-25.051 0-6.917 6.918-6.918 18.133 0 25.051l102.881 102.882c3.6 3.6 8.364 5.309 13.08 5.162.317.017.636.027.957.027h272.7c9.783 0 17.713-7.931 17.713-17.713s-7.93-17.716-17.713-17.716z" fill="url(#SVGID_3_)"/><path d="m331.191 358.466-35.427-35.426h-35.371l35.427 35.426z" fill="url(#SVGID_4_)"/><g><path d="m68.73 502.821c-8.315-8.928-7.675-22.984.951-31.61l111.307-111.307c8.647-8.647 22.752-9.306 31.683-.953 9.337 8.733 9.522 23.388.554 32.356l-112.105 112.104c-8.979 8.98-23.66 8.783-32.39-.59z" fill="url(#SVGID_5_)"/><path d="m490.138 502.821c8.315-8.928 7.675-22.984-.951-31.61l-111.308-111.308c-8.647-8.647-22.752-9.306-31.683-.953-9.337 8.733-9.522 23.388-.554 32.356l112.105 112.105c8.981 8.98 23.662 8.783 32.391-.59z" fill="url(#SVGID_6_)"/><path d="m431.781 413.802h-63.64l-22.5-22.5c-.8-.8-1.52-1.64-2.17-2.51-6.69-9.01-5.78-21.88 2.73-29.84 8.93-8.35 23.03-7.7 31.68.95z" fill="url(#SVGID_7_)"/><path d="m346.835 350.73-77.492-77.492c-1.708-2.3-4.437-3.798-7.522-3.798h-162.382c-4.993 0-9.352 3.767-9.675 8.75-.354 5.46 3.969 9.998 9.354 9.998h151.057c4.868 0 9.538 1.934 12.98 5.377l70.649 70.649c3.807 3.807 10.073 3.655 13.684-.456 3.296-3.751 2.877-9.497-.653-13.028z" fill="url(#SVGID_8_)"/><path d="m473.529 344.153h-297.055l-124.092-124.092c-8.787-8.787-23.033-8.787-31.82 0s-8.787 23.033 0 31.82l130.682 130.682c4.573 4.573 10.624 6.743 16.615 6.556.402.021.807.034 1.215.034h304.455c12.427 0 22.5-10.074 22.5-22.5s-10.073-22.5-22.5-22.5z" fill="url(#SVGID_9_)"/><path d="m473.529 344.153h-40.02c12.427 0 22.5 10.074 22.5 22.5s-10.073 22.5-22.5 22.5h40.02c12.427 0 22.5-10.074 22.5-22.5s-10.073-22.5-22.5-22.5z" fill="url(#SVGID_10_)"/><g><path d="m27.371 220.061 113.34 113.34c6.884 6.884 16.222 10.752 25.958 10.752h9.805l-124.092-124.092c-7.726-7.726-19.67-8.652-28.415-2.791 1.2.805 2.344 1.731 3.404 2.791z" fill="url(#SVGID_11_)"/></g></g><g><path d="m472.678 510.002h-281.848c-19.128 0-31.22-17.763-21.613-31.933 24.206-35.705 87.843-61.195 162.537-61.195s138.331 25.49 162.537 61.195c9.607 14.17-2.484 31.933-21.613 31.933z" fill="url(#SVGID_12_)"/><g><path d="m319.171 510.002h-281.848c-19.128 0-31.22-20.734-21.613-37.274 24.206-41.677 87.843-71.431 162.537-71.431s138.331 29.754 162.537 71.431c9.607 16.54-2.485 37.274-21.613 37.274z" fill="url(#SVGID_13_)"/><path d="m340.784 472.727c-24.206-41.677-87.843-71.431-162.537-71.431-6.768 0-13.444.248-20.01.723 65.892 4.77 120.514 32.807 142.527 70.708 9.607 16.541-2.485 37.274-21.613 37.274h40.02c19.128.001 31.22-20.733 21.613-37.274z" fill="url(#SVGID_14_)"/></g></g><g><g><g><path d="m411.439 172.079c-10.441-82.534-56.935-144.76-112.71-144.76 20.244 0 37.052 64.737 40.315 149.73.647 16.842 14.442 30.185 31.296 30.185h10.008c18.818 0 33.452-16.486 31.091-35.155z" fill="url(#SVGID_15_)"/><path d="m411.439 172.079c-10.441-82.534-56.935-144.76-112.71-144.76 4.849 0 9.501 3.724 13.817 10.542 37.512 21.087 65.992 71.85 73.881 134.218 2.037 16.099-8.57 30.564-23.594 34.245 2.406.593 4.92.91 7.507.91h10.008c18.818 0 33.452-16.486 31.091-35.155z" fill="url(#SVGID_16_)"/><path d="m186.02 172.079c-2.362 18.669 12.272 35.155 31.09 35.155h10.008c16.854 0 30.65-13.343 31.296-30.185 3.263-84.993 20.071-149.73 40.314-149.73-55.774 0-102.267 62.226-112.708 144.76z" fill="url(#SVGID_15_)"/></g><path d="m474.643 169.325c-17.406-81.16-89.554-142.006-175.914-142.006-86.359 0-158.508 60.846-175.914 142.006-4.183 19.506 10.679 37.909 30.628 37.909h.624c16.163 0 29.555-12.31 31.183-28.391 8.694-85.874 56.19-151.523 113.479-151.524-20.046 0-36.722 63.476-40.215 147.24-.743 17.811 13.467 32.674 31.294 32.674h17.842c17.827 0 32.037-14.863 31.294-32.674-3.492-83.764-20.169-147.24-40.215-147.24 57.289 0 104.785 65.649 113.479 151.524 1.628 16.081 15.02 28.391 31.182 28.391h.624c19.95 0 34.812-18.403 30.629-37.909z" fill="url(#SVGID_18_)"/><path d="m307.651 207.232h-17.84c-1.21 0-2.4-.07-3.58-.2 16.1-1.84 28.4-15.87 27.7-32.47-2.73-65.55-13.54-118.66-27.71-138.67 1.92-2.71 3.91-4.82 5.94-6.26.64-.46 1.29-.85 1.94-1.17 1.52-.75 3.06-1.14 4.63-1.14 2.51 0 4.96.99 7.35 2.9 2.22 1.77 4.38 4.34 6.46 7.63 13.53 21.36 23.75 73.2 26.4 136.71.75 17.81-13.46 32.67-31.29 32.67z" fill="url(#SVGID_19_)"/><path d="m444.011 207.232h-.62c-4.31 0-8.42-.88-12.16-2.47 13.32-5.64 21.66-20.2 18.4-35.44-12.46-58.1-52.97-105.79-106.68-128.2 0 0 0 0-.01 0-13.22-8.64-27.69-13.52-42.87-13.79 85.77.62 157.26 61.25 174.57 141.99 4.19 19.51-10.68 37.91-30.63 37.91z" fill="url(#SVGID_20_)"/></g><path d="m312.74 27.45c0 8.064-28.021 8.064-28.021 0s6.273-27.45 14.01-27.45 14.011 19.386 14.011 27.45z" fill="url(#SVGID_21_)"/></g></g></svg>